<svg xmlns="http://www.w3.org/2000/svg" viewBox="0 0 56.8 56.94"><defs><style>.cls-1,.cls-2{fill:#fff;}.cls-2{fill-rule:evenodd;}</style></defs><g id="Capa_2" data-name="Capa 2"><g id="Capa_2-2" data-name="Capa 2"><path class="cls-1" d="M0,56.94,4.08,41.71A28.21,28.21,0,1,1,15.31,52.84Zm16.07-9.81,1,.58A22.92,22.92,0,1,0,9.21,40l.59,1-2.28,8.5Z"/><path class="cls-2" d="M39.14,32c-1.16-.69-2.67-1.46-4-.9-1,.42-1.71,2.06-2.39,2.9a1,1,0,0,1-1.3.28,18.27,18.27,0,0,1-9.1-7.8A1.11,1.11,0,0,1,22.46,25a6.13,6.13,0,0,0,1.65-2.69,5.86,5.86,0,0,0-.74-3.18c-.54-1.18-1.16-2.86-2.34-3.53a3.2,3.2,0,0,0-3.49.52,7.08,7.08,0,0,0-2.46,5.61,8.18,8.18,0,0,0,.22,1.78A14.67,14.67,0,0,0,17,27.44c.55.94,1.14,1.84,1.78,2.72a27.73,27.73,0,0,0,7.74,7.18,23.51,23.51,0,0,0,4.83,2.3c1.89.62,3.58,1.27,5.62.89a6.79,6.79,0,0,0,5.09-3.79,3.32,3.32,0,0,0,.24-1.94C42,33.47,40.22,32.68,39.14,32Z"/></g></g></svg>