<svg xmlns="http://www.w3.org/2000/svg" viewBox="0 0 1107.37 1104.93"><defs><style>.cls-1{fill:#fff;}</style></defs><g id="Capa_2" data-name="Capa 2"><g id="Capa_2-2" data-name="Capa 2"><path class="cls-1" d="M661,1104.93H453.76c-14.81-5.11-29.39-11-44.46-15.21C133.45,1013.62-42.93,741.84,9.09,459.85c41.73-226.24,177.16-378.56,400-438.1,223.2-59.64,416,4.84,571.53,175.52,67.65,74.21,101.23,166.28,126.77,261.61v199.4c-2.4,4.43-5.95,8.59-7,13.33-36.72,159.91-123.95,284.23-267.12,364.33C779.69,1065.89,718.63,1082.33,661,1104.93ZM155.92,308V800.41c104.06,0,206.29,7.68,306.75-2.37,84.13-8.41,128.53-89.54,110.12-172.19-9.89-44.37-38.13-73.53-82.37-92.62,9.14-7.51,14.94-12.5,21-17.2,45.68-35.59,47.44-84.48,35.19-133.72-11.61-46.69-50.79-71.14-94.63-73C354.31,305.09,256.37,308,155.92,308ZM943,685.06c-38.66-1.41-74.87-8.83-107.49,27.65-25.84,28.89-66.12,24.43-100.25,7.28-32-16.06-40.25-45.73-39.28-84.24H953.72C966.2,519.4,905.33,436.5,801.56,423.08,702.91,410.32,613,475.37,597.75,570.53,578.83,688.7,637.24,785.62,738.57,800.88,835.09,815.41,928.42,778.67,943,685.06ZM677.2,384.93H877.34V331.84H677.2Z"/><path class="cls-1" d="M266.77,718V586.35c50.29,0,99-2.92,147.11,1,36.24,2.92,48.57,30.5,49.46,65.49,1,37.05-16.62,61-51,64.12C365.34,721.16,317.62,718,266.77,718Z"/><path class="cls-1" d="M269.82,506.34V393.46c44.89,0,88.27-2.67,131.13.83,35.84,2.92,47.08,29.62,44.72,63.2-2.33,33.16-24.18,46.72-52.94,48.3C353.26,508,313.57,506.34,269.82,506.34Z"/><path class="cls-1" d="M694.63,573.93c7.9-54.07,34.78-76.47,86.18-75.13,44.67,1.16,63,20.55,69.11,75.13Z"/></g></g></svg>