<svg xmlns="http://www.w3.org/2000/svg" viewBox="0 0 48.89 57"><defs><style>.cls-1{fill:#fff;}</style></defs><g id="Capa_2" data-name="Capa 2"><g id="Capa_2-2" data-name="Capa 2"><path class="cls-1" d="M48.89,0V.31q0,14,0,27.93a.59.59,0,0,1-.2.47L30.77,46.63a.64.64,0,0,1-.5.21H22.74a.7.7,0,0,0-.54.22l-9.68,9.69a1.64,1.64,0,0,0-.2.26l-.05,0h0l0,0v0c0-3.33,0-6.66,0-10l0,0H0a1.68,1.68,0,0,1,0-.2,1.61,1.61,0,0,1,0-.22q0-17.94,0-35.9a.76.76,0,0,1,.25-.59L10,.21a.64.64,0,0,1,.5-.21H48.89ZM21.39,41.66l.05,0,.23-.22,6.55-6.56a.88.88,0,0,1,.71-.3h7.48a.56.56,0,0,0,.43-.18q3.88-3.9,7.79-7.79a.52.52,0,0,0,.17-.4q0-11,0-21.88a2.17,2.17,0,0,0,0-.26c-.31-.06-32.32-.05-32.52,0-.06.34,0,30.28,0,30.5h9.1Z"/><path class="cls-1" d="M27.47,23.41h-4c-.06-.21-.08-11.8,0-12.16.19-.06,3.48-.08,4,0C27.51,11.4,27.53,23,27.47,23.41Z"/><path class="cls-1" d="M34.66,11.21h4c.06.21.08,11.79,0,12.16-.19.06-3.49.09-4,0l0,0a0,0,0,0,1,0,0,.59.59,0,0,1,0-.13V11.31S34.65,11.26,34.66,11.21Z"/></g></g></svg>