<svg xmlns="http://www.w3.org/2000/svg" viewBox="0 0 56.94 56.94"><defs><style>.cls-1{fill:#fff;}</style></defs><g id="Capa_2" data-name="Capa 2"><g id="Capa_2-2" data-name="Capa 2"><path class="cls-1" d="M43.54,10.17a3.34,3.34,0,1,0,3.34,3.33A3.33,3.33,0,0,0,43.54,10.17Z"/><path class="cls-1" d="M28.7,14.45a14,14,0,1,0,14,14A14,14,0,0,0,28.7,14.45Zm0,23a9,9,0,1,1,9-9A9,9,0,0,1,28.7,37.45Z"/><path class="cls-1" d="M39.84,56.94H17.1A17.12,17.12,0,0,1,0,39.84V17.1A17.12,17.12,0,0,1,17.1,0H39.84a17.12,17.12,0,0,1,17.1,17.1V39.84A17.12,17.12,0,0,1,39.84,56.94ZM17.1,5.36A11.76,11.76,0,0,0,5.36,17.1V39.84A11.76,11.76,0,0,0,17.1,51.58H39.84A11.76,11.76,0,0,0,51.58,39.84V17.1A11.76,11.76,0,0,0,39.84,5.36Z"/></g></g></svg>