<svg xmlns="http://www.w3.org/2000/svg" viewBox="0 0 512 512"><defs><style>.cls-1{fill:#fff;}</style></defs><g id="Capa_2" data-name="Capa 2"><g id="Capa_1-2" data-name="Capa 1"><path class="cls-1" d="M256,0C114.62,0,0,114.62,0,256S114.62,512,256,512,512,397.38,512,256,397.38,0,256,0ZM400,384a16,16,0,0,1-16,16c-150,0-272-122-272-272a16,16,0,0,1,16-16h59.07a16,16,0,0,1,16,16A176.11,176.11,0,0,0,221,206.24a16,16,0,0,1-7.42,21.44L189.7,239.2a225.28,225.28,0,0,0,83.1,83.1l11.52-23.84A16,16,0,0,1,305.76,291,176.68,176.68,0,0,0,384,308.93a16,16,0,0,1,16,16Z"/></g></g></svg>