<svg xmlns="http://www.w3.org/2000/svg" viewBox="0 0 57 39.58"><defs><style>.cls-1{fill:#fff;}</style></defs><g id="Capa_2" data-name="Capa 2"><g id="Capa_2-2" data-name="Capa 2"><path class="cls-1" d="M30.05,39.58c-7.4-.24-13.11-.4-18.82-.65a20.83,20.83,0,0,1-4.72-.67,7.54,7.54,0,0,1-5.79-6.6A96.88,96.88,0,0,1,.25,12.55c.1-1.8.42-3.58.62-5.38.38-3.45,3.71-6,7-6.34A183,183,0,0,1,30.11,0c5,.05,10.07.25,15.1.44A32.92,32.92,0,0,1,50,1a7.1,7.1,0,0,1,6.12,6.3,66.81,66.81,0,0,1,.86,14.19c-.13,3.54-.43,7.08-.88,10.58a7.24,7.24,0,0,1-6.88,6.42C42.25,39,35.31,39.3,30.05,39.58ZM23.11,10.93V28.46L37.37,19.7Z"/></g></g></svg>